<?xml version="1.0" encoding="utf-8"?>
<!-- Generator: Adobe Illustrator 24.1.2, SVG Export Plug-In . SVG Version: 6.00 Build 0)  -->
<svg version="1.1" id="Layer_1" xmlns="http://www.w3.org/2000/svg" xmlns:xlink="http://www.w3.org/1999/xlink" x="0px" y="0px"
	 viewBox="0 0 512 512" style="enable-background:new 0 0 512 512;" xml:space="preserve">
<style type="text/css">
	.st0{fill:#8C14FC;}
</style>
<g>
	<path class="st0" d="M495.6,416.9L361.5,282.8c14.7-27.5,22.5-58.3,22.5-90.3c0-50.5-19.5-98.2-54.8-134.3
		c-35.3-36-82.4-56.5-132.8-57.6c-1.5,0-2.9-0.1-4.4-0.1C86.1,0.5,0,86.6,0,192.5s86.1,192,192,192c1.5,0,2.9,0,4.4-0.1
		c30.5-0.7,59.7-8.4,85.9-22.4l134.1,134.1c10.6,10.6,24.6,16.4,39.6,16.4s29-5.8,39.6-16.4c10.6-10.6,16.4-24.6,16.4-39.6
		S506.2,427.4,495.6,416.9L495.6,416.9z M195.7,352.4c-1.2,0-2.4,0-3.7,0c-88.2,0-160-71.8-160-160s71.8-160,160-160
		c1.2,0,2.4,0,3.7,0c86.2,1.9,156.3,73.7,156.3,160C352,278.7,281.9,350.5,195.7,352.4L195.7,352.4z M473,473.4
		c-4.5,4.5-10.5,7-17,7s-12.4-2.5-17-7L309.7,344.2c6.8-5.3,13.3-11.1,19.5-17.4c5.2-5.3,10-10.8,14.5-16.6L473,439.5
		c4.5,4.5,7,10.6,7,17S477.5,468.9,473,473.4L473,473.4z"/>
	<path class="st0" d="M192,64.5c-70.6,0-128,57.4-128,128s57.4,128,128,128s128-57.4,128-128S262.6,64.5,192,64.5z M192,288.5
		c-52.9,0-96-43.1-96-96s43.1-96,96-96s96,43.1,96,96S244.9,288.5,192,288.5z"/>
</g>
</svg>
