<?xml version="1.0" encoding="utf-8"?>
<!-- Generator: Adobe Illustrator 24.1.2, SVG Export Plug-In . SVG Version: 6.00 Build 0)  -->
<svg version="1.1" id="Capa_1" xmlns="http://www.w3.org/2000/svg" xmlns:xlink="http://www.w3.org/1999/xlink" x="0px" y="0px"
	 viewBox="0 0 477.9 477.9" style="enable-background:new 0 0 477.9 477.9;" xml:space="preserve">
<style type="text/css">
	.st0{fill:#8C14FC;}
</style>
<g>
	<g>
		<path class="st0" d="M0,238.9c0,132,107,238.9,238.9,238.9s238.9-107,238.9-238.9S370.9,0,238.9,0C107,0,0,107,0,238.9z
			 M125.1,226.3L295.8,72.7c6.9-6,17.4-5.4,23.6,1.2c6.4,6.9,6.1,17.7-0.8,24.1L162,238.9l156.6,140.9c6.7,6.3,7.2,16.7,1.2,23.6
			c-6.2,7.1-16.9,7.9-24.1,1.7L125.1,251.6c-0.4-0.4-0.9-0.8-1.3-1.3C117.5,243.4,118.1,232.6,125.1,226.3z"/>
	</g>
</g>
</svg>
