<?xml version="1.0" encoding="utf-8"?>
<!-- Generator: Adobe Illustrator 24.1.2, SVG Export Plug-In . SVG Version: 6.00 Build 0)  -->
<svg version="1.1" id="Layer_1" xmlns="http://www.w3.org/2000/svg" xmlns:xlink="http://www.w3.org/1999/xlink" x="0px" y="0px"
	 viewBox="0 0 500 500" style="enable-background:new 0 0 500 500;" xml:space="preserve">
<style type="text/css">
	.st0{fill:#8C14FC;}
	.st1{display:none;fill:#FFFFFF;}
</style>
<path class="st0" d="M250,0C111.9,0,0,111.9,0,250c0,138.1,111.9,250,250,250s250-111.9,250-250C500,111.9,388.1,0,250,0z
	 M437.5,256.1H262.3v174.8c0,6.9-5.6,12.5-12.5,12.5c-3.5,0-6.6-1.4-8.8-3.7c-2.3-2.3-3.7-5.4-3.7-8.8V256.1H62.5
	c-6.9,0-12.5-5.6-12.5-12.5c0-3.5,1.4-6.6,3.7-8.8c2.3-2.3,5.4-3.7,8.8-3.7h174.8V55.9c0-6.9,5.6-12.5,12.5-12.5
	c3.5,0,6.6,1.4,8.8,3.7c2.3,2.3,3.7,5.4,3.7,8.8v175.2h175.2c6.9,0,12.5,5.6,12.5,12.5c0,3.5-1.4,6.6-3.7,8.8
	C444.1,254.7,441,256.1,437.5,256.1z"/>
<path class="st1" d="M450,243.6c0,3.5-1.4,6.6-3.7,8.8c-2.3,2.3-5.4,3.7-8.8,3.7H262.3v-25h175.2C444.4,231.1,450,236.7,450,243.6z"
	/>
<path class="st1" d="M237.3,231.1v25H62.5c-6.9,0-12.5-5.6-12.5-12.5c0-3.5,1.4-6.6,3.7-8.8c2.3-2.3,5.4-3.7,8.8-3.7H237.3z"/>
<path class="st1" d="M262.3,256.1v174.8c0,6.9-5.6,12.5-12.5,12.5c-3.5,0-6.6-1.4-8.8-3.7c-2.3-2.3-3.7-5.4-3.7-8.8V256.1H262.3z"/>
<path class="st1" d="M262.3,55.9v175.2h-25V55.9c0-6.9,5.6-12.5,12.5-12.5c3.5,0,6.6,1.4,8.8,3.7C260.9,49.3,262.3,52.5,262.3,55.9z
	"/>
<rect x="237.3" y="231.1" class="st1" width="25" height="25"/>
</svg>
